<svg width="70" height="99" viewBox="0 0 70 99" fill="none" xmlns="http://www.w3.org/2000/svg">
<path d="M48.3699 22.6528H21.9279C21.2259 22.6528 20.7579 22.1856 20.7579 21.4848C20.7579 20.784 21.2259 20.3168 21.9279 20.3168H48.3699C49.0719 20.3168 49.5399 20.784 49.5399 21.4848C49.5399 22.1856 49.0719 22.6528 48.3699 22.6528Z" fill="white"/>
<path d="M64.399 58.8608H62.878V49.8672C63.697 48.3488 64.165 46.5968 64.165 44.8448C64.165 44.728 64.165 44.728 64.165 44.728L61.123 24.5216C61.006 23.4704 60.538 22.536 60.07 21.7184C62.176 20.4336 63.58 18.0976 63.58 15.528V10.3888C63.58 6.4176 60.304 3.1472 56.326 3.1472H53.05C52.816 1.7456 51.646 0.694397 50.125 0.694397C48.721 0.694397 47.434 1.7456 47.2 3.1472H23.098C22.864 1.7456 21.694 0.694397 20.173 0.694397C18.652 0.694397 17.482 1.7456 17.248 3.1472H12.802C8.82395 3.1472 5.54795 6.4176 5.54795 10.3888V15.528C5.54795 18.3312 7.06895 20.6672 9.40895 21.8352C8.94095 22.6528 8.58995 23.5872 8.47295 24.5216L5.43095 44.728V44.8448C5.43095 46.7136 5.89895 48.3488 6.71795 49.8672V58.8608H5.19695C2.38895 58.8608 0.0489502 61.1968 0.0489502 64V71.7088C0.0489502 72.4096 0.51695 72.8768 1.21895 72.8768H1.56995V81.7536C1.56995 84.44 3.67595 86.5424 6.36695 86.5424H6.71795V87.36C6.71795 93.3168 11.5149 98.1056 17.482 98.1056H52.114C58.081 98.1056 62.878 93.3168 62.878 87.36V86.5424H63.229C65.92 86.5424 68.026 84.44 68.026 81.7536V72.8768H68.494C69.196 72.8768 69.664 72.4096 69.664 71.7088V64C69.547 61.1968 67.207 58.8608 64.399 58.8608ZM64.399 61.1968C65.92 61.1968 67.207 62.4816 67.207 64V70.5408H66.739H62.878V61.1968H64.399ZM61.24 10.272V15.4112C61.24 18.0976 59.017 20.3168 56.326 20.3168H53.05V5.3664H56.209C59.017 5.3664 61.24 7.5856 61.24 10.272ZM49.54 3.6144C49.54 3.264 49.774 3.0304 50.125 3.0304C50.476 3.0304 50.71 3.264 50.71 3.6144V22.0688C50.71 22.4192 50.476 22.6528 50.125 22.6528C49.774 22.6528 49.54 22.4192 49.54 22.0688V3.6144ZM19.588 3.6144C19.588 3.264 19.822 3.0304 20.173 3.0304C20.524 3.0304 20.758 3.264 20.758 3.6144V22.0688C20.758 22.4192 20.524 22.6528 20.173 22.6528C19.822 22.6528 19.588 22.4192 19.588 22.0688V3.6144ZM7.88795 15.4112V10.272C7.88795 7.5856 10.111 5.3664 12.802 5.3664H17.248V20.3168H12.802C10.111 20.3168 7.88795 18.0976 7.88795 15.4112ZM10.696 24.872C10.813 24.0544 11.164 23.2368 11.632 22.6528C11.983 22.7696 12.334 22.7696 12.802 22.7696H17.248C17.482 24.0544 18.769 25.1056 20.173 25.1056C21.811 25.1056 23.098 23.8208 23.098 22.1856V5.3664H47.2V21.952C47.2 23.5872 48.487 24.872 50.125 24.872C51.529 24.872 52.699 23.8208 53.05 22.536H56.326C56.794 22.536 57.379 22.536 57.847 22.4192C58.315 23.12 58.666 23.8208 58.9 24.7552L61.942 44.8448C61.942 49.5168 58.081 53.2544 53.401 53.2544H52.582V45.5456C52.582 45.1952 52.465 44.9616 52.231 44.728C51.997 44.4944 51.763 44.3776 51.412 44.3776H45.445C44.743 44.3776 44.275 44.8448 44.275 45.5456V53.2544H25.672V45.5456C25.672 44.8448 25.204 44.3776 24.502 44.3776H18.535C17.833 44.3776 17.365 44.8448 17.365 45.5456V53.2544H16.312C11.6319 53.2544 7.88795 49.5168 7.77095 44.8448L10.696 24.872ZM52.231 69.4896V70.1904H44.158V69.4896H52.231ZM46.498 72.6432H50.125V73.6944L48.37 75.68L46.615 73.6944V72.6432H46.498ZM46.498 67.1536V46.8304H50.125V67.1536H46.498ZM25.438 69.4896V70.1904H17.365V69.4896H25.438ZM19.705 72.6432H23.332V73.6944L21.46 75.68L19.705 73.6944V72.6432ZM19.705 67.1536V46.8304H23.332V67.1536H19.705ZM2.27195 64.1168C2.27195 62.5984 3.55895 61.3136 5.07995 61.3136H6.60095V70.6576H2.73995H2.27195V64.1168ZM6.36695 84.2064C5.07995 84.2064 3.90995 83.1552 3.90995 81.7536V72.8768H6.60095V84.2064H6.36695ZM60.538 87.36C60.538 92.032 56.794 95.7696 52.114 95.7696H17.482C12.8019 95.7696 9.05795 92.032 9.05795 87.36V85.3744V71.7088V60.0288V52.904C10.93 54.656 13.504 55.7072 16.312 55.7072H17.365V67.1536H16.195C15.493 67.1536 15.025 67.6208 15.025 68.3216V71.3584C15.025 72.0592 15.493 72.5264 16.195 72.5264H17.365V74.0448C17.365 74.2784 17.482 74.6288 17.716 74.8624L20.641 78.1328C20.875 78.3664 21.226 78.4832 21.46 78.4832C21.811 78.4832 22.045 78.3664 22.279 78.1328L25.321 74.8624C25.555 74.6288 25.672 74.3952 25.672 74.0448V72.5264H26.608C27.31 72.5264 27.778 72.0592 27.778 71.3584V68.3216C27.778 67.6208 27.31 67.1536 26.608 67.1536H25.672V55.7072H44.275V67.1536H43.105C42.403 67.1536 41.935 67.6208 41.935 68.3216V71.3584C41.935 72.0592 42.403 72.5264 43.105 72.5264H44.275V74.0448C44.275 74.2784 44.392 74.6288 44.626 74.8624L47.551 78.1328C47.785 78.3664 48.136 78.4832 48.37 78.4832C48.721 78.4832 48.955 78.3664 49.189 78.1328L52.231 74.8624C52.465 74.6288 52.582 74.3952 52.582 74.0448V72.5264H53.518C54.22 72.5264 54.688 72.0592 54.688 71.3584V68.3216C54.688 67.6208 54.22 67.1536 53.518 67.1536H52.582V55.7072H53.401C56.209 55.7072 58.666 54.656 60.655 52.904V60.1456V71.8256V85.4912V87.36H60.538ZM65.686 81.7536C65.686 83.0384 64.633 84.2064 63.229 84.2064H62.878V72.8768H65.569V81.7536H65.686Z" fill="white"/>
<path d="M35.266 42.8592C35.149 42.8592 34.915 42.8592 34.798 42.7424L28.714 36.6688C28.48 36.4352 28.48 36.0848 28.714 35.8512L34.798 29.7776C35.032 29.544 35.383 29.544 35.617 29.7776L41.701 35.8512C41.935 36.0848 41.935 36.4352 41.701 36.6688L35.617 42.7424C35.5 42.8592 35.383 42.8592 35.266 42.8592ZM30.001 36.3184L35.266 41.5744L40.531 36.3184L35.266 31.0624L30.001 36.3184Z" fill="white"/>
<path d="M33.7449 38.6544C33.3939 38.6544 33.1599 38.4208 33.1599 38.0704V34.216C33.1599 33.8656 33.3939 33.632 33.7449 33.632C34.0959 33.632 34.3299 33.8656 34.3299 34.216V37.9536C34.3299 38.304 34.0959 38.6544 33.7449 38.6544Z" fill="white"/>
<path d="M36.436 38.6544C36.085 38.6544 35.851 38.4208 35.851 38.0704V34.216C35.851 33.8656 36.085 33.632 36.436 33.632C36.787 33.632 37.021 33.8656 37.021 34.216V37.9536C37.021 38.304 36.787 38.6544 36.436 38.6544Z" fill="white"/>
</svg>
