<svg width="90" height="96" viewBox="0 0 90 96" fill="none" xmlns="http://www.w3.org/2000/svg">
<path d="M69.6331 95.0752H60.3901C59.6881 95.0752 59.2201 94.6048 59.2201 93.8992C59.2201 93.1936 59.6881 92.7232 60.3901 92.7232H69.6331C70.3351 92.7232 70.8031 93.1936 70.8031 93.8992C70.8031 94.6048 70.3351 95.0752 69.6331 95.0752Z" fill="white"/>
<path d="M88.2361 41.4496L84.3751 37.0984C82.9711 35.452 80.5141 35.3344 78.8761 36.7456L77.1211 38.2744L52.0831 12.9904C52.5511 12.2848 52.7851 11.4616 52.7851 10.6384C52.7851 9.46241 52.3171 8.28641 51.4981 7.34561C50.6791 6.40481 49.5091 5.93441 48.2221 5.93441C48.1051 5.93441 47.9881 5.93441 47.9881 5.93441C47.9881 5.81681 47.9881 5.58161 47.9881 5.46401C47.9881 4.28801 47.5201 3.11201 46.7011 2.17121C45.8821 1.23041 44.8291 0.76001 43.6591 0.76001C42.3721 0.76001 41.3191 1.23041 40.3831 2.05361L17.9191 23.4568C17.1001 24.28 16.5151 25.456 16.5151 26.7496C16.5151 27.9256 16.9831 29.1016 17.8021 30.0424C18.7381 30.9832 19.9081 31.4536 21.0781 31.4536H21.1951C21.1951 31.5712 21.1951 31.8064 21.1951 31.924C21.1951 33.1 21.6631 34.276 22.4821 35.2168C23.4181 36.1576 24.5881 36.628 25.7581 36.628C26.4601 36.628 27.2791 36.3928 27.9811 36.04V49.7992H26.6941C25.9921 49.7992 25.5241 50.2696 25.5241 50.9752C25.5241 51.6808 25.9921 52.1512 26.6941 52.1512H27.9811V54.268H26.6941C25.9921 54.268 25.5241 54.7384 25.5241 55.444C25.5241 56.1496 25.9921 56.62 26.6941 56.62H27.9811V58.7368H26.6941C25.9921 58.7368 25.5241 59.2072 25.5241 59.9128C25.5241 60.6184 25.9921 61.0888 26.6941 61.0888H27.9811V68.38C25.5241 66.9688 22.8331 66.1456 19.9081 66.1456C11.4841 66.1456 4.58107 72.7312 4.11307 81.0808H1.18807C0.486066 81.0808 0.0180664 81.5512 0.0180664 82.2568V93.7816C0.0180664 94.4872 0.486066 94.9576 1.18807 94.9576H20.2591C20.3761 94.9576 20.3761 94.9576 20.4931 94.9576H44.4781C45.1801 94.9576 45.6481 94.4872 45.6481 93.7816C45.6481 93.076 45.1801 92.6056 44.4781 92.6056H35.9371L87.8851 46.8592C89.5231 45.5656 89.6401 43.096 88.2361 41.4496ZM19.4401 28.396C18.9721 27.9256 18.8551 27.3376 18.8551 26.7496C18.8551 26.1616 19.0891 25.5736 19.5571 25.1032L42.0211 3.70001C42.4891 3.34721 42.9571 3.11201 43.5421 3.11201C44.1271 3.11201 44.7121 3.34721 45.1801 3.81761C45.6481 4.28801 45.7651 4.87601 45.7651 5.46401C45.7651 6.05201 45.5311 6.64001 45.0631 7.11041L22.7161 28.5136C21.7801 29.3368 20.3761 29.3368 19.4401 28.396ZM24.2371 33.5704C23.7691 33.1 23.6521 32.512 23.6521 31.924C23.6521 31.336 23.8861 30.748 24.3541 30.2776L46.8181 8.87441C47.2861 8.52161 47.7541 8.28641 48.3391 8.28641C48.9241 8.28641 49.5091 8.52161 49.9771 8.99201C50.4451 9.46241 50.5621 10.0504 50.5621 10.6384C50.5621 11.2264 50.3281 11.8144 49.8601 12.2848L27.3961 33.688C26.4601 34.5112 25.0561 34.5112 24.2371 33.5704ZM20.0251 68.4976C23.0671 68.4976 26.1091 69.556 28.4491 71.5552C28.9171 71.908 29.3851 72.3784 29.8531 72.8488C30.3211 73.3192 31.0231 73.3192 31.4911 72.8488C31.9591 72.3784 31.9591 71.6728 31.4911 71.2024C31.1401 70.8496 30.6721 70.3792 30.3211 70.0264V61.0888H35.1181C35.8201 61.0888 36.2881 60.6184 36.2881 59.9128C36.2881 59.2072 35.8201 58.7368 35.1181 58.7368H30.3211V56.62H35.1181C35.8201 56.62 36.2881 56.1496 36.2881 55.444C36.2881 54.7384 35.8201 54.268 35.1181 54.268H30.3211V52.1512H35.1181C35.8201 52.1512 36.2881 51.6808 36.2881 50.9752C36.2881 50.2696 35.8201 49.7992 35.1181 49.7992H30.3211V34.0408L50.5621 14.7544L75.3661 39.6856L29.9701 79.7872C29.0341 80.6104 27.8641 81.0808 26.5771 81.0808H6.57007C7.03807 74.0248 12.8881 68.4976 20.0251 68.4976ZM86.3641 45.2128L33.5971 91.6648C32.8951 92.2528 31.9591 92.6056 31.0231 92.6056H2.47507V83.4328H26.5771C28.4491 83.4328 30.2041 82.7272 31.4911 81.5512L80.3971 38.392C81.0991 37.804 82.0351 37.9216 82.6201 38.5096L86.4811 42.8608C87.0661 43.684 86.9491 44.6248 86.3641 45.2128Z" fill="white"/>
</svg>
