<svg width="93" height="93" viewBox="0 0 93 93" fill="none" xmlns="http://www.w3.org/2000/svg">
<path d="M46.4092 0.363281C54.1592 0.363281 60.4863 0.454102 65.3906 0.635742C69.5684 0.817383 73.292 1.54395 76.5615 2.81543C79.71 4.02637 82.4346 5.78223 84.7354 8.08301C87.0361 10.3838 88.792 13.1084 90.0029 16.2568C91.2744 19.5264 92.001 23.25 92.1826 27.4277C92.3643 32.332 92.4551 38.6592 92.4551 46.4092C92.4551 54.1592 92.3643 60.4863 92.1826 65.3906C92.001 69.5684 91.2744 73.292 90.0029 76.5615C88.792 79.71 87.0361 82.4346 84.7354 84.7354C82.4346 87.0361 79.71 88.792 76.5615 90.0029C73.292 91.2744 69.5684 92.001 65.3906 92.1826C60.4863 92.3643 54.1592 92.4551 46.4092 92.4551C38.6592 92.4551 32.332 92.3643 27.4277 92.1826C23.25 92.001 19.5264 91.2744 16.2568 90.0029C13.1084 88.792 10.3838 87.0361 8.08301 84.7354C5.78223 82.4346 4.02637 79.71 2.81543 76.5615C1.54395 73.292 0.817383 69.5684 0.635742 65.3906C0.454102 60.4863 0.363281 54.1592 0.363281 46.4092C0.363281 38.6592 0.454102 32.332 0.635742 27.4277C0.817383 23.25 1.54395 19.5264 2.81543 16.2568C4.02637 13.1084 5.78223 10.3838 8.08301 8.08301C10.3838 5.78223 13.1084 4.02637 16.2568 2.81543C19.5264 1.54395 23.25 0.817383 27.4277 0.635742C32.332 0.454102 38.6592 0.363281 46.4092 0.363281ZM46.4092 6.35742C38.3564 6.35742 31.7871 6.44824 26.7012 6.62988C23.4316 6.75098 20.4043 7.32617 17.6191 8.35547C13.2598 10.1719 10.1719 13.2598 8.35547 17.6191C7.32617 20.4043 6.75098 23.4316 6.62988 26.7012C6.44824 31.7871 6.35742 38.3564 6.35742 46.4092C6.35742 54.4619 6.44824 61.0312 6.62988 66.1172C6.75098 69.3867 7.32617 72.4141 8.35547 75.1992C10.1719 79.5586 13.2598 82.6465 17.6191 84.4629C20.4043 85.4922 23.4316 86.0674 26.7012 86.1885C31.7871 86.3701 38.3564 86.4609 46.4092 86.4609C54.4619 86.4609 61.0312 86.3701 66.1172 86.1885C69.3867 86.0674 72.4141 85.4922 75.1992 84.4629C79.5586 82.6465 82.6465 79.5586 84.4629 75.1992C85.4922 72.4141 86.0674 69.3867 86.1885 66.1172C86.3701 61.0312 86.4609 54.4619 86.4609 46.4092C86.4609 38.3564 86.3701 31.7871 86.1885 26.7012C86.0674 23.4316 85.4922 20.4043 84.4629 17.6191C82.6465 13.2598 79.5586 10.1719 75.1992 8.35547C72.4141 7.32617 69.3867 6.75098 66.1172 6.62988C61.0312 6.44824 54.4619 6.35742 46.4092 6.35742ZM46.4092 64.8457C51.4951 64.8457 55.8394 63.0444 59.4419 59.4419C63.0444 55.8394 64.8457 51.4951 64.8457 46.4092C64.8457 41.3232 63.0444 36.979 59.4419 33.3765C55.8394 29.7739 51.4951 27.9727 46.4092 27.9727C41.3232 27.9727 36.979 29.7739 33.3765 33.3765C29.7739 36.979 27.9727 41.3232 27.9727 46.4092C27.9727 51.4951 29.7739 55.8394 33.3765 59.4419C36.979 63.0444 41.3232 64.8457 46.4092 64.8457ZM46.4092 22.7959C52.9482 22.7959 58.5186 25.0967 63.1201 29.6982C67.7217 34.2998 70.0225 39.8701 70.0225 46.4092C70.0225 52.9482 67.7217 58.5186 63.1201 63.1201C58.5186 67.7217 52.9482 70.0225 46.4092 70.0225C39.8701 70.0225 34.2998 67.7217 29.6982 63.1201C25.0967 58.5186 22.7959 52.9482 22.7959 46.4092C22.7959 39.8701 25.0967 34.2998 29.6982 29.6982C34.2998 25.0967 39.8701 22.7959 46.4092 22.7959ZM76.5615 21.8877C76.5615 23.4014 76.0166 24.688 74.9268 25.7476C73.8369 26.8071 72.5049 27.3369 70.9307 27.3369C69.417 27.3369 68.1304 26.8071 67.0708 25.7476C66.0112 24.688 65.4814 23.4014 65.4814 21.8877C65.4814 20.3135 66.0112 18.9814 67.0708 17.8916C68.1304 16.8018 69.417 16.2568 70.9307 16.2568C72.4443 16.2568 73.7612 16.8169 74.8813 17.937C76.0015 19.0571 76.5615 20.374 76.5615 21.8877Z" fill="#C22E8F"/>
</svg>
