<svg width="45" height="39" viewBox="0 0 45 39" fill="none" xmlns="http://www.w3.org/2000/svg">
<g clip-path="url(#clip0)">
<path d="M42.5752 14.2832C36.2513 13.5296 31.6447 9.87031 26.3939 7.08914C23.544 5.58086 21.3465 4.56974 17.9684 5.07889C14.9512 5.53353 13.6214 8.02358 9.60469 8.51536C9.03068 8.58305 8.39767 8.852 8.43932 9.23417C8.06313 9.47497 8.28037 10.0494 8.5941 10.5005C10.6493 13.4691 13.2709 16.2263 15.7231 18.9584C17.9386 21.4227 20.497 23.4053 24.1007 24.108C27.6058 24.789 31.3032 23.9768 34.2545 22.2906C35.8453 21.3819 37.103 20.1486 38.2843 18.8739C39.601 17.4585 41.4181 16.8672 43.0256 15.7717C43.5975 15.3781 43.3067 14.3688 42.5689 14.2814" fill="#009248"/>
<path d="M42.5752 14.2515C41.4441 14.1149 40.3308 13.8852 39.2505 13.5657C38.6425 13.9376 38.0698 14.3581 37.5708 14.896C36.3874 16.1677 35.1276 17.4035 33.5382 18.3121C30.5855 19.9989 26.8888 20.8106 23.3816 20.1271C19.7793 19.4269 17.2195 17.4442 15.004 14.9781C13.1091 12.8744 11.1164 10.7492 9.36176 8.52686C8.86757 8.63348 8.40392 8.87607 8.43932 9.20313C8.06313 9.44572 8.28037 10.0184 8.5941 10.473C10.6493 13.4393 13.2709 16.1965 15.7231 18.9249C17.9386 21.3892 20.497 23.3719 24.1076 24.0745C27.6127 24.7556 31.3101 23.9464 34.2614 22.2596C35.8522 21.3509 37.1099 20.1151 38.2913 18.8429C39.6079 17.425 41.4251 16.8338 43.0326 15.7358C43.6045 15.3465 43.3137 14.336 42.5758 14.2485" fill="#037E40"/>
<path d="M1.32562 6.52616C4.25119 8.31179 7.5356 9.36124 10.6722 10.7138C14.0864 12.1849 17.4242 13.6267 21.0002 14.7085C28.1118 16.8637 35.4684 16.493 42.8035 15.6639C43.6982 15.5621 43.3851 14.2054 42.4932 14.3048C35.4031 15.1069 28.3158 15.4315 21.4347 13.3769C17.9753 12.3431 14.6993 10.9995 11.4211 9.51878C8.3102 8.11352 5.01329 7.13175 2.08703 5.34613C1.31937 4.87831 0.560039 6.05834 1.32562 6.52616" fill="#3BB44A"/>
<path d="M3.1323 38.2109C7.15036 36.5218 11.4822 37.1034 15.7862 36.953C18.1197 36.8704 19.8563 36.7224 21.5936 35.2908C23.1421 34.0107 22.7902 32.1161 24.9016 30.4808C25.2049 30.2478 25.452 29.8758 25.2584 29.6734C25.3694 29.402 24.9835 29.1427 24.5976 28.9857C22.0614 27.9506 19.2913 27.2283 16.6323 26.4651C14.2342 25.7775 11.8542 25.481 9.43946 26.286C7.09206 27.0689 5.30895 28.7821 4.3525 30.7546C3.83819 31.8178 3.66328 32.9601 3.54945 34.0964C3.4259 35.3609 2.63395 36.3157 2.19598 37.4939C2.03842 37.9156 2.66171 38.402 3.1323 38.2086" fill="#08A69B"/>
<path d="M3.14627 38.2278C3.86656 37.9273 4.61812 37.6863 5.39094 37.5078C5.57487 37.0867 5.71994 36.65 5.76713 36.1708C5.88235 35.0345 6.05518 33.8898 6.56741 32.829C7.52317 30.8565 9.30836 29.1433 11.6544 28.3604C14.0684 27.5554 16.4505 27.8513 18.8486 28.5395C20.8996 29.1283 23.02 29.6932 25.0384 30.3958C25.2786 30.1682 25.4382 29.8705 25.2702 29.6932C25.3827 29.4242 24.994 29.1649 24.6088 29.0073C22.0733 27.9723 19.306 27.2499 16.6469 26.4843C14.2475 25.7985 11.8675 25.5026 9.45273 26.3076C7.10672 27.0881 5.32222 28.8037 4.36716 30.7762C3.85215 31.837 3.67655 32.9793 3.56411 34.1156C3.44056 35.3825 2.65 36.3379 2.20925 37.5156C2.05378 37.9349 2.67706 38.4236 3.14627 38.2278" fill="#04786B"/>
<path d="M30.6231 28.854C28.1126 28.7983 25.7298 29.2949 23.2936 29.562C20.6443 29.8525 18.0526 30.1359 15.4858 30.7079C10.3794 31.8442 6.26838 34.5319 2.37803 37.479C1.90327 37.8378 2.698 38.5207 3.16998 38.1667C6.93262 35.3142 10.907 32.7457 15.8357 31.6286C18.3094 31.0667 20.8247 30.7462 23.3991 30.5066C25.8423 30.2766 28.1994 29.7411 30.7078 29.7962C31.3658 29.8106 31.2756 28.8684 30.6231 28.854" fill="#04786B"/>
<path d="M26.5766 0.4798C26.5821 1.90722 26.7098 3.34063 26.5585 4.76686C26.3919 6.37098 25.566 7.72712 24.2014 8.81491C23.6545 9.25038 24.4714 9.94822 25.0149 9.51634C26.3961 8.41358 27.2783 7.06523 27.6031 5.46469C27.9356 3.82403 27.7329 2.13364 27.726 0.4798C27.7232 -0.159933 26.5738 -0.159933 26.5766 0.4798" fill="#BCBCBE"/>
<path d="M35.7524 0.766284C35.7878 4.87364 31.4893 8.06033 28.6214 10.9152C28.139 11.3974 28.9462 12.1 29.4362 11.6166C32.5249 8.54013 36.9393 5.18512 36.9011 0.76868C36.8949 0.128946 35.7482 0.128946 35.7524 0.76868" fill="#BCBCBE"/>
<path d="M40.4235 6.45542C39.7384 8.66335 37.8401 10.3741 35.5996 11.5044C34.959 11.8279 35.5406 12.6856 36.1792 12.361C38.6744 11.1031 40.7705 9.1719 41.5299 6.72078C41.7207 6.10201 40.6151 5.84025 40.4235 6.45542Z" fill="#BCBCBE"/>
<path d="M5.03359e-05 18.3007C0.038225 20.5523 0.909996 22.7183 1.96015 24.7537C2.26069 25.3384 3.25045 24.834 2.9513 24.2524C1.98791 22.3811 1.18555 20.3678 1.15154 18.3001C1.13904 17.661 -0.00966686 17.661 5.03359e-05 18.3001" fill="#BCBCBE"/>
<path d="M4.20623 17.0596C4.2333 20.3721 5.34315 23.4982 6.7681 26.5448C7.04227 27.1312 8.15419 26.8742 7.87586 26.2806C6.48908 23.3197 5.38063 20.2846 5.35286 17.0596C5.35217 16.4198 4.19721 16.4198 4.20623 17.0596" fill="#BCBCBE"/>
<path d="M8.73847 17.9203C8.85438 19.5196 9.10356 21.092 9.64425 22.6315C9.85733 23.2424 10.9679 22.9831 10.752 22.3697C10.2398 20.9129 9.99684 19.4322 9.88857 17.9203C9.84206 17.283 8.69196 17.2806 8.73847 17.9203" fill="#BCBCBE"/>
</g>
<defs>
<clipPath id="clip0">
<rect width="44.4215" height="38.3361" fill="white"/>
</clipPath>
</defs>
</svg>
