<svg width="117" height="114" viewBox="0 0 117 114" fill="none" xmlns="http://www.w3.org/2000/svg">
<path d="M103.545 29.7767C100.172 31.2328 96.5936 32.188 92.9297 32.6107C96.7889 30.3608 99.6768 26.8204 101.055 22.6494C97.4278 24.7476 93.4584 26.2251 89.319 27.0179C87.5896 25.2206 85.4998 23.7885 83.1791 22.8104C80.8584 21.8322 78.3563 21.3289 75.8278 21.3316C65.6207 21.3316 57.3441 29.3936 57.3441 39.3413C57.3441 40.7515 57.5079 42.1274 57.8238 43.4464C42.4617 42.6952 28.8429 35.5246 19.7263 24.6273C18.0825 27.3759 17.2188 30.5011 17.2236 33.6823C17.2212 36.6475 17.9705 39.5673 19.405 42.1823C20.8395 44.7974 22.9148 47.0267 25.4464 48.6722C22.5117 48.5813 19.6417 47.809 17.0751 46.4195C17.0727 46.4948 17.0727 46.5689 17.0727 46.6464C17.0727 55.3697 23.4434 62.6486 31.8978 64.305C29.1755 65.0231 26.3212 65.1283 23.551 64.6128C25.9027 71.7663 32.7285 76.975 40.8167 77.1209C34.2693 82.1273 26.1841 84.8428 17.8613 84.8307C16.3695 84.8307 14.8989 84.7463 13.4516 84.5788C21.9029 89.8697 31.7388 92.678 41.7843 92.6682C75.7821 92.6682 94.3734 65.2273 94.3734 41.4309C94.3734 40.6511 94.3547 39.8725 94.3196 39.0985C97.9402 36.5516 101.064 33.3947 103.545 29.7767V29.7767Z" fill="#71C9F8"/>
</svg>
